<?xml version="1.0" encoding="utf-8"?>
<!-- Generator: Adobe Illustrator 15.0.0, SVG Export Plug-In . SVG Version: 6.00 Build 0)  -->
<!DOCTYPE svg PUBLIC "-//W3C//DTD SVG 1.1//EN" "http://www.w3.org/Graphics/SVG/1.1/DTD/svg11.dtd">
<svg version="1.1" id="Layer_1" xmlns="http://www.w3.org/2000/svg" xmlns:xlink="http://www.w3.org/1999/xlink" x="0px" y="0px"
	 width="45px" height="45px" viewBox="-14 -14 45 45" enable-background="new -14 -14 45 45" xml:space="preserve">
<path fill="#FF3333" d="M8.794,17.765c6.565,0,11.911-5.346,11.911-11.912v-7.94c0-6.118-4.647-11.109-10.588-11.776V-14H7.471
	v0.136C1.53-13.197-3.118-8.206-3.118-2.088v7.94C-3.118,12.419,2.227,17.765,8.794,17.765z M2.176-8.549v5.137h2.647v-7.009
	c0.826-0.395,1.71-0.662,2.647-0.796v7.805h2.646v-7.805c0.936,0.134,1.82,0.399,2.647,0.796v7.009h2.646v-5.137
	c1.634,1.67,2.647,3.947,2.647,6.461v1.323H-0.471v-1.323C-0.471-4.603,0.542-6.882,2.176-8.549z M-0.471,1.883h18.529v3.97
	c0,5.108-4.157,9.265-9.265,9.265c-5.109,0-9.265-4.156-9.265-9.265V1.883z M26,4.529v8.604c0,5.47-5.346,9.926-11.912,9.926h-3.971
	V31H7.471v-7.941H3.5c-6.567,0-11.912-4.456-11.912-9.926V4.529h2.647v8.604c0,4.017,4.155,7.279,9.265,7.279h10.588
	c5.108,0,9.265-3.263,9.265-7.279V4.529H26z"/>
</svg>
