<?xml version="1.0" encoding="utf-8"?>
<!-- Generator: Adobe Illustrator 15.0.0, SVG Export Plug-In . SVG Version: 6.00 Build 0)  -->
<!DOCTYPE svg PUBLIC "-//W3C//DTD SVG 1.1//EN" "http://www.w3.org/Graphics/SVG/1.1/DTD/svg11.dtd">
<svg version="1.1" id="Layer_1" xmlns="http://www.w3.org/2000/svg" xmlns:xlink="http://www.w3.org/1999/xlink" x="0px" y="0px"
	 width="45px" height="45px" viewBox="-14 -14 45 45" enable-background="new -14 -14 45 45" xml:space="preserve">
<path fill="#FF3333" d="M19.03-15H-2.146c-2.189,0-3.971,1.781-3.971,3.971v37.059c0,2.189,1.781,3.971,3.971,3.971H19.03
	C21.22,30,23,28.219,23,26.029v-37.059C23-13.219,21.22-15,19.03-15z M-2.146-12.353H19.03c0.729,0,1.323,0.593,1.323,1.324v3.971
	H-3.47v-3.971C-3.47-11.76-2.877-12.353-2.146-12.353z M20.354-4.412v21.177H-3.47V-4.412H20.354z M19.03,27.353H-2.146
	c-0.73,0-1.324-0.594-1.324-1.323v-6.617h23.824v6.617C20.354,26.759,19.759,27.353,19.03,27.353z M9.766,23.383
	c0,0.729-0.594,1.323-1.324,1.323s-1.323-0.595-1.323-1.323c0-0.729,0.593-1.324,1.323-1.324S9.766,22.653,9.766,23.383z"/>
</svg>
