<?xml version="1.0" encoding="utf-8"?>
<!-- Generator: Adobe Illustrator 15.0.0, SVG Export Plug-In . SVG Version: 6.00 Build 0)  -->
<!DOCTYPE svg PUBLIC "-//W3C//DTD SVG 1.1//EN" "http://www.w3.org/Graphics/SVG/1.1/DTD/svg11.dtd">
<svg version="1.1" id="Layer_1" xmlns="http://www.w3.org/2000/svg" xmlns:xlink="http://www.w3.org/1999/xlink" x="0px" y="0px"
	 width="45px" height="45px" viewBox="-14 -14 45 45" enable-background="new -14 -14 45 45" xml:space="preserve">
<path fill="#FF3333" d="M8.5,1.882c-3.647,0-6.617,2.97-6.617,6.618c0,3.646,2.97,6.619,6.617,6.619s6.617-2.973,6.617-6.619
	C15.117,4.852,12.147,1.882,8.5,1.882z M8.5,12.473c-2.189,0-3.971-1.785-3.971-3.972c0-2.19,1.781-3.971,3.971-3.971
	s3.971,1.78,3.971,3.971C12.471,10.688,10.689,12.473,8.5,12.473z M30.84,11.076C30.938,10.229,31,9.371,31,8.5
	c0-0.872-0.062-1.729-0.16-2.579l-6.851-2.059c-0.315-1.065-0.734-2.084-1.254-3.043l3.387-6.292
	c-1.075-1.349-2.301-2.575-3.652-3.652l-6.292,3.389c-0.962-0.52-1.98-0.938-3.045-1.255l-2.053-6.852
	C10.232-13.939,9.374-14,8.5-14s-1.732,0.061-2.578,0.158L3.867-6.991C2.802-6.677,1.779-6.255,0.824-5.733l-6.292-3.389
	C-6.821-8.047-8.047-6.821-9.12-5.469l3.387,6.286c-0.52,0.959-0.938,1.98-1.255,3.046l-6.853,2.059C-13.939,6.768-14,7.626-14,8.5
	c0,0.873,0.061,1.73,0.159,2.576l6.85,2.057c0.318,1.066,0.735,2.09,1.255,3.047l-3.386,6.289c1.075,1.352,2.301,2.576,3.654,3.652
	l6.292-3.387c0.957,0.52,1.979,0.938,3.043,1.256l2.055,6.852c0.85,0.098,1.707,0.16,2.578,0.16s1.732-0.062,2.58-0.16l2.053-6.852
	c1.064-0.318,2.086-0.736,3.045-1.256l6.286,3.387c1.354-1.076,2.58-2.301,3.655-3.656l-3.384-6.289
	c0.52-0.959,0.938-1.98,1.254-3.043L30.84,11.076z M21.862,11.006l-0.406,1.373c-0.267,0.889-0.618,1.748-1.05,2.539l-0.677,1.256
	l0.675,1.256l2.521,4.684c-0.264,0.279-0.533,0.549-0.812,0.812l-5.935-3.201l-1.259,0.678c-0.797,0.432-1.652,0.781-2.541,1.051
	l-1.37,0.408l-0.411,1.369l-1.533,5.113c-0.19,0.006-0.379,0.01-0.563,0.01s-0.373-0.004-0.563-0.01L6.403,23.23l-0.411-1.369
	l-1.37-0.408c-0.889-0.264-1.744-0.619-2.538-1.051l-1.258-0.678l-5.943,3.195c-0.275-0.264-0.548-0.531-0.81-0.811l3.197-5.938
	l-0.677-1.26c-0.43-0.791-0.781-1.648-1.049-2.539l-0.404-1.369l-6.483-1.943c-0.008-0.191-0.01-0.378-0.01-0.56
	c0-0.187,0.002-0.374,0.01-0.564l6.48-1.943l0.407-1.371c0.266-0.893,0.617-1.746,1.049-2.539l0.677-1.258l-3.197-5.941
	c0.262-0.275,0.532-0.548,0.808-0.81l5.948,3.203l1.26-0.686c0.786-0.429,1.64-0.78,2.531-1.045l1.37-0.408l0.411-1.372l1.532-5.113
	c0.193-0.003,0.382-0.005,0.566-0.005s0.373,0.002,0.563,0.008l1.533,5.113l0.411,1.373l1.37,0.406
	c0.887,0.266,1.744,0.617,2.541,1.049l1.259,0.675l5.94-3.198c0.273,0.262,0.548,0.532,0.809,0.81l-2.522,4.686l-0.675,1.256
	l0.68,1.258c0.432,0.795,0.78,1.646,1.047,2.533l0.406,1.372l1.372,0.41l5.113,1.538c0.003,0.19,0.005,0.378,0.005,0.564
	c0,0.185-0.002,0.372-0.01,0.564L21.862,11.006z"/>
</svg>
