<?xml version="1.0" encoding="utf-8"?>
<!-- Generator: Adobe Illustrator 15.0.0, SVG Export Plug-In . SVG Version: 6.00 Build 0)  -->
<!DOCTYPE svg PUBLIC "-//W3C//DTD SVG 1.1//EN" "http://www.w3.org/Graphics/SVG/1.1/DTD/svg11.dtd">
<svg version="1.1" id="Layer_1" xmlns="http://www.w3.org/2000/svg" xmlns:xlink="http://www.w3.org/1999/xlink" x="0px" y="0px"
	 width="45px" height="45px" viewBox="-14 -14 45 45" enable-background="new -14 -14 45 45" xml:space="preserve">
<path fill="#FF3333" d="M28-14c0,4.961-4.037,9-9,9s-9-4.039-9-9H7c0,4.961-4.037,9-9,9s-9-4.039-9-9h-3V6.54
	c0,16.214,21.006,24.001,21.902,24.324L8.4,31.045l0.501-0.176C9.803,30.562,31,23.111,31,6.456V-14H28z M-11,6.537V-6.075
	C-8.801-3.579-5.579-2-2-2c3.589,0,6.798-1.6,9-4.108v33.344C2.022,24.992-11,18.031-11,6.537z M28,6.456
	c0,11.687-12.879,18.489-18,20.737V-6.11c2.203,2.507,5.411,4.107,9,4.107c3.58,0,6.803-1.576,9-4.072V6.456z"/>
</svg>
