<?xml version="1.0" encoding="utf-8"?>
<!-- Generator: Adobe Illustrator 15.0.0, SVG Export Plug-In . SVG Version: 6.00 Build 0)  -->
<!DOCTYPE svg PUBLIC "-//W3C//DTD SVG 1.1//EN" "http://www.w3.org/Graphics/SVG/1.1/DTD/svg11.dtd">
<svg version="1.1" id="Layer_1" xmlns="http://www.w3.org/2000/svg" xmlns:xlink="http://www.w3.org/1999/xlink" x="0px" y="0px"
	 width="45px" height="45px" viewBox="-14 -14 45 45" enable-background="new -14 -14 45 45" xml:space="preserve">
<path fill="#FF3333" d="M20.389,5.221v-5.956c0-2.19-1.796-3.97-4.004-3.97H-3.411v-1.324c0-0.73,0.596-1.324,1.322-1.324h14.668
	V-10H-2.089c-2.188,0-3.97,1.781-3.97,3.971v1.324h-3.939c-2.208,0-4.001,1.78-4.001,3.97v5.297c0,2.189,1.794,3.971,4.001,3.971
	h1.335v14.557c0,2.188,1.781,3.97,3.971,3.97H16.39c2.207,0,4.002-1.781,4.002-3.97V17.13L31,24.494V-2.145L20.389,5.221z
	 M28.354,19.438l-10.612-7.367v11.018c0,0.729-0.607,1.323-1.356,1.323H-4.692c-0.728,0-1.324-0.595-1.324-1.323V5.885h-3.982
	c-0.749,0-1.354-0.593-1.354-1.323v-5.297c0-0.73,0.606-1.324,1.354-1.324H16.39c0.744,0,1.354,0.593,1.354,1.324v11.02
	l10.609-7.369V19.438z"/>
</svg>
